<mxfile host="app.diagrams.net" agent="Mozilla/5.0 (X11; Linux x86_64) AppleWebKit/537.36 (KHTML, like Gecko) Chrome/132.0.0.0 Safari/537.36" version="26.0.14">
  <diagram name="Page-1" id="2YBvvXClWsGukQMizWep">
    <mxGraphModel dx="762" dy="788" grid="1" gridSize="10" guides="1" tooltips="1" connect="1" arrows="1" fold="1" page="1" pageScale="1" pageWidth="850" pageHeight="1100" math="0" shadow="0">
      <root>
        <mxCell id="0" />
        <mxCell id="1" parent="0" />
        <mxCell id="aM9ryv3xv72pqoxQDRHE-1" value=":Object" style="shape=umlLifeline;perimeter=lifelinePerimeter;whiteSpace=wrap;html=1;container=0;dropTarget=0;collapsible=0;recursiveResize=0;outlineConnect=0;portConstraint=eastwest;newEdgeStyle={&quot;edgeStyle&quot;:&quot;elbowEdgeStyle&quot;,&quot;elbow&quot;:&quot;vertical&quot;,&quot;curved&quot;:0,&quot;rounded&quot;:0};" parent="1" vertex="1">
          <mxGeometry x="40" y="40" width="100" height="300" as="geometry" />
        </mxCell>
        <mxCell id="aM9ryv3xv72pqoxQDRHE-2" value="" style="html=1;points=[];perimeter=orthogonalPerimeter;outlineConnect=0;targetShapes=umlLifeline;portConstraint=eastwest;newEdgeStyle={&quot;edgeStyle&quot;:&quot;elbowEdgeStyle&quot;,&quot;elbow&quot;:&quot;vertical&quot;,&quot;curved&quot;:0,&quot;rounded&quot;:0};" parent="aM9ryv3xv72pqoxQDRHE-1" vertex="1">
          <mxGeometry x="45" y="70" width="10" height="190" as="geometry" />
        </mxCell>
        <mxCell id="aM9ryv3xv72pqoxQDRHE-5" value=":Object" style="shape=umlLifeline;perimeter=lifelinePerimeter;whiteSpace=wrap;html=1;container=0;dropTarget=0;collapsible=0;recursiveResize=0;outlineConnect=0;portConstraint=eastwest;newEdgeStyle={&quot;edgeStyle&quot;:&quot;elbowEdgeStyle&quot;,&quot;elbow&quot;:&quot;vertical&quot;,&quot;curved&quot;:0,&quot;rounded&quot;:0};" parent="1" vertex="1">
          <mxGeometry x="220" y="40" width="100" height="300" as="geometry" />
        </mxCell>
        <mxCell id="aM9ryv3xv72pqoxQDRHE-6" value="" style="html=1;points=[];perimeter=orthogonalPerimeter;outlineConnect=0;targetShapes=umlLifeline;portConstraint=eastwest;newEdgeStyle={&quot;edgeStyle&quot;:&quot;elbowEdgeStyle&quot;,&quot;elbow&quot;:&quot;vertical&quot;,&quot;curved&quot;:0,&quot;rounded&quot;:0};" parent="aM9ryv3xv72pqoxQDRHE-5" vertex="1">
          <mxGeometry x="45" y="80" width="10" height="170" as="geometry" />
        </mxCell>
        <mxCell id="aM9ryv3xv72pqoxQDRHE-7" value="dispatch" style="html=1;verticalAlign=bottom;endArrow=block;edgeStyle=elbowEdgeStyle;elbow=vertical;curved=0;rounded=0;" parent="1" source="aM9ryv3xv72pqoxQDRHE-2" target="aM9ryv3xv72pqoxQDRHE-6" edge="1">
          <mxGeometry relative="1" as="geometry">
            <mxPoint x="195" y="130" as="sourcePoint" />
            <Array as="points">
              <mxPoint x="180" y="120" />
            </Array>
          </mxGeometry>
        </mxCell>
        <mxCell id="aM9ryv3xv72pqoxQDRHE-8" value="return" style="html=1;verticalAlign=bottom;endArrow=open;dashed=1;endSize=8;edgeStyle=elbowEdgeStyle;elbow=vertical;curved=0;rounded=0;" parent="1" source="aM9ryv3xv72pqoxQDRHE-6" target="aM9ryv3xv72pqoxQDRHE-2" edge="1">
          <mxGeometry relative="1" as="geometry">
            <mxPoint x="195" y="205" as="targetPoint" />
            <Array as="points">
              <mxPoint x="190" y="280" />
            </Array>
          </mxGeometry>
        </mxCell>
        <mxCell id="aM9ryv3xv72pqoxQDRHE-9" value="callback" style="html=1;verticalAlign=bottom;endArrow=block;edgeStyle=elbowEdgeStyle;elbow=vertical;curved=0;rounded=0;" parent="1" source="aM9ryv3xv72pqoxQDRHE-6" edge="1">
          <mxGeometry relative="1" as="geometry">
            <mxPoint x="175" y="160" as="sourcePoint" />
            <Array as="points">
              <mxPoint x="190" y="160" />
            </Array>
            <mxPoint x="99.99999999999977" y="160" as="targetPoint" />
          </mxGeometry>
        </mxCell>
        <mxCell id="aM9ryv3xv72pqoxQDRHE-10" value="return" style="html=1;verticalAlign=bottom;endArrow=open;dashed=1;endSize=8;edgeStyle=elbowEdgeStyle;elbow=vertical;curved=0;rounded=0;" parent="1" target="aM9ryv3xv72pqoxQDRHE-6" edge="1">
          <mxGeometry relative="1" as="geometry">
            <mxPoint x="175" y="235" as="targetPoint" />
            <Array as="points">
              <mxPoint x="180" y="230" />
            </Array>
            <mxPoint x="99.99999999999977" y="230" as="sourcePoint" />
          </mxGeometry>
        </mxCell>
        <mxCell id="2DQe4uAKgCYchEltKK3G-120" value=":Object" style="shape=umlLifeline;perimeter=lifelinePerimeter;whiteSpace=wrap;html=1;container=0;dropTarget=0;collapsible=0;recursiveResize=0;outlineConnect=0;portConstraint=eastwest;newEdgeStyle={&quot;edgeStyle&quot;:&quot;elbowEdgeStyle&quot;,&quot;elbow&quot;:&quot;vertical&quot;,&quot;curved&quot;:0,&quot;rounded&quot;:0};" vertex="1" parent="1">
          <mxGeometry x="360" y="40" width="100" height="300" as="geometry" />
        </mxCell>
        <mxCell id="2DQe4uAKgCYchEltKK3G-121" value="" style="html=1;points=[];perimeter=orthogonalPerimeter;outlineConnect=0;targetShapes=umlLifeline;portConstraint=eastwest;newEdgeStyle={&quot;edgeStyle&quot;:&quot;elbowEdgeStyle&quot;,&quot;elbow&quot;:&quot;vertical&quot;,&quot;curved&quot;:0,&quot;rounded&quot;:0};" vertex="1" parent="2DQe4uAKgCYchEltKK3G-120">
          <mxGeometry x="45" y="80" width="10" height="170" as="geometry" />
        </mxCell>
        <mxCell id="2DQe4uAKgCYchEltKK3G-122" value=":Object" style="shape=umlLifeline;perimeter=lifelinePerimeter;whiteSpace=wrap;html=1;container=0;dropTarget=0;collapsible=0;recursiveResize=0;outlineConnect=0;portConstraint=eastwest;newEdgeStyle={&quot;edgeStyle&quot;:&quot;elbowEdgeStyle&quot;,&quot;elbow&quot;:&quot;vertical&quot;,&quot;curved&quot;:0,&quot;rounded&quot;:0};" vertex="1" parent="1">
          <mxGeometry x="500" y="40" width="100" height="300" as="geometry" />
        </mxCell>
        <mxCell id="2DQe4uAKgCYchEltKK3G-123" value="" style="html=1;points=[];perimeter=orthogonalPerimeter;outlineConnect=0;targetShapes=umlLifeline;portConstraint=eastwest;newEdgeStyle={&quot;edgeStyle&quot;:&quot;elbowEdgeStyle&quot;,&quot;elbow&quot;:&quot;vertical&quot;,&quot;curved&quot;:0,&quot;rounded&quot;:0};" vertex="1" parent="2DQe4uAKgCYchEltKK3G-122">
          <mxGeometry x="45" y="80" width="10" height="170" as="geometry" />
        </mxCell>
        <mxCell id="2DQe4uAKgCYchEltKK3G-125" value="&lt;span style=&quot;color: rgb(0, 0, 0); font-family: Helvetica; font-size: 14px; font-style: normal; font-variant-ligatures: normal; font-variant-caps: normal; font-weight: 400; letter-spacing: normal; orphans: 2; text-align: center; text-indent: 0px; text-transform: none; widows: 2; word-spacing: 0px; -webkit-text-stroke-width: 0px; white-space: normal; background-color: rgb(251, 251, 251); text-decoration-thickness: initial; text-decoration-style: initial; text-decoration-color: initial; float: none; display: inline !important;&quot;&gt;Alt&lt;/span&gt;" style="html=1;blockSpacing=1;whiteSpace=wrap;shape=mxgraph.sysml.package2;xSize=90;overflow=fill;fontSize=13.5;align=left;spacing=0;rounded=1;absoluteArcSize=1;arcSize=12;strokeWidth=NaN;lucidId=xZpTAPdpukCf;" vertex="1" parent="1">
          <mxGeometry x="915" y="705" width="933" height="165" as="geometry" />
        </mxCell>
        <mxCell id="2DQe4uAKgCYchEltKK3G-126" value="Alt" style="html=1;blockSpacing=1;whiteSpace=wrap;shape=mxgraph.sysml.package2;xSize=90;overflow=fill;fontSize=13.5;align=left;spacing=0;rounded=1;absoluteArcSize=1;arcSize=12;strokeWidth=NaN;lucidId=.dqTOCepFq3y;" vertex="1" parent="1">
          <mxGeometry x="915" y="1031" width="933" height="159" as="geometry" />
        </mxCell>
        <mxCell id="2DQe4uAKgCYchEltKK3G-127" value="Alternative" style="html=1;blockSpacing=1;whiteSpace=wrap;shape=mxgraph.sysml.package2;xSize=90;overflow=fill;fontSize=13.5;align=left;spacing=0;rounded=1;absoluteArcSize=1;arcSize=12;strokeWidth=NaN;lucidId=-lqTDZGTSmCs;" vertex="1" parent="1">
          <mxGeometry x="915" y="1335" width="933" height="184" as="geometry" />
        </mxCell>
        <mxCell id="2DQe4uAKgCYchEltKK3G-128" value="" style="html=1;jettySize=18;whiteSpace=wrap;fontSize=13;strokeColor=#333333;strokeOpacity=100;dashed=1;fixDash=1;dashPattern=16 6;strokeWidth=0.8;rounded=1;arcSize=10;edgeStyle=orthogonalEdgeStyle;startArrow=none;endArrow=none;exitX=0.5;exitY=0.532;exitPerimeter=0;lucidId=MqcVGEdurxjJ;" edge="1" parent="1" source="2DQe4uAKgCYchEltKK3G-138">
          <mxGeometry width="100" height="100" relative="1" as="geometry">
            <Array as="points" />
            <mxPoint x="1013" y="2475" as="targetPoint" />
          </mxGeometry>
        </mxCell>
        <mxCell id="2DQe4uAKgCYchEltKK3G-129" value="" style="html=1;jettySize=18;whiteSpace=wrap;fontSize=13;fontFamily=helvetica;strokeColor=#333333;strokeOpacity=100;dashed=1;fixDash=1;dashPattern=16 6;strokeWidth=0.8;rounded=0;startArrow=none;endArrow=none;exitX=0.5;exitY=1;exitPerimeter=0;lucidId=MqcVzrL-7rmi;" edge="1" parent="1" source="2DQe4uAKgCYchEltKK3G-141">
          <mxGeometry width="100" height="100" relative="1" as="geometry">
            <Array as="points" />
            <mxPoint x="1245" y="2460" as="targetPoint" />
          </mxGeometry>
        </mxCell>
        <mxCell id="2DQe4uAKgCYchEltKK3G-130" value="Sequence diagram shapes" style="html=1;overflow=block;blockSpacing=1;whiteSpace=wrap;fontSize=12.4;fontStyle=1;spacing=0;rounded=1;absoluteArcSize=1;arcSize=24;shadow=1;fillColor=#ffffff;strokeWidth=1.5;lucidId=MqcVp4q3XHEn;" vertex="1" parent="1">
          <mxGeometry x="624" y="430" width="264" height="192" as="geometry" />
        </mxCell>
        <mxCell id="2DQe4uAKgCYchEltKK3G-131" value="" style="html=1;jettySize=18;whiteSpace=wrap;fontSize=13;fontFamily=helvetica;strokeColor=#333333;strokeOpacity=100;dashed=1;fixDash=1;dashPattern=16 6;strokeWidth=0.8;rounded=1;arcSize=24;edgeStyle=orthogonalEdgeStyle;startArrow=none;endArrow=none;exitX=0.5;exitY=1;exitPerimeter=0;lucidId=MqcVlcxoSIf4;" edge="1" parent="1" source="2DQe4uAKgCYchEltKK3G-136">
          <mxGeometry width="100" height="100" relative="1" as="geometry">
            <Array as="points" />
            <mxPoint x="1519" y="2445" as="targetPoint" />
          </mxGeometry>
        </mxCell>
        <mxCell id="2DQe4uAKgCYchEltKK3G-132" value="" style="html=1;overflow=block;blockSpacing=1;whiteSpace=wrap;fontSize=13;spacing=0;rounded=1;absoluteArcSize=1;arcSize=12;strokeWidth=NaN;lucidId=MqcVewxU1dYZ;" vertex="1" parent="1">
          <mxGeometry x="1504" y="618" width="30" height="837" as="geometry" />
        </mxCell>
        <mxCell id="2DQe4uAKgCYchEltKK3G-133" value="" style="html=1;jettySize=18;whiteSpace=wrap;fontSize=13;fontFamily=helvetica;strokeColor=#333333;strokeOpacity=100;dashed=1;fixDash=1;dashPattern=16 6;strokeWidth=0.8;rounded=1;arcSize=24;edgeStyle=orthogonalEdgeStyle;startArrow=none;endArrow=none;exitX=0.5;exitY=1;exitPerimeter=0;lucidId=MqcVdNzbLK6W;" edge="1" parent="1" source="2DQe4uAKgCYchEltKK3G-137">
          <mxGeometry width="100" height="100" relative="1" as="geometry">
            <Array as="points" />
            <mxPoint x="1789" y="2445" as="targetPoint" />
          </mxGeometry>
        </mxCell>
        <mxCell id="2DQe4uAKgCYchEltKK3G-134" value="" style="html=1;overflow=block;blockSpacing=1;whiteSpace=wrap;fontSize=13;spacing=0;rounded=1;absoluteArcSize=1;arcSize=12;strokeWidth=NaN;lucidId=MqcVCeURbGk-;" vertex="1" parent="1">
          <mxGeometry x="1774" y="660" width="30" height="810" as="geometry" />
        </mxCell>
        <mxCell id="2DQe4uAKgCYchEltKK3G-135" value="" style="html=1;overflow=block;blockSpacing=1;whiteSpace=wrap;fontSize=13;spacing=0;rounded=1;absoluteArcSize=1;arcSize=12;strokeWidth=NaN;lucidId=MqcVM0QZbrUZ;" vertex="1" parent="1">
          <mxGeometry x="1234" y="573" width="30" height="882" as="geometry" />
        </mxCell>
        <mxCell id="2DQe4uAKgCYchEltKK3G-136" value="Backend" style="html=1;overflow=block;blockSpacing=1;whiteSpace=wrap;fontSize=12.4;fontColor=default;align=center;spacing=0;strokeOpacity=0;fillOpacity=100;rounded=1;absoluteArcSize=1;arcSize=12;fillColor=#6db1ff;strokeWidth=0.8;" vertex="1" parent="1">
          <mxGeometry x="1448" y="431" width="143" height="92" as="geometry" />
        </mxCell>
        <mxCell id="2DQe4uAKgCYchEltKK3G-137" value="Cloud DB" style="html=1;overflow=block;blockSpacing=1;whiteSpace=wrap;fontSize=12.4;fontColor=default;align=center;spacing=0;strokeOpacity=0;fillOpacity=100;rounded=1;absoluteArcSize=1;arcSize=12;fillColor=#6db1ff;strokeWidth=0.8;" vertex="1" parent="1">
          <mxGeometry x="1718" y="431" width="143" height="92" as="geometry" />
        </mxCell>
        <mxCell id="2DQe4uAKgCYchEltKK3G-138" value="User" style="html=1;overflow=block;blockSpacing=1;shape=umlActor;labelPosition=center;verticalLabelPosition=bottom;verticalAlign=top;whiteSpace=nowrap;fontSize=12.4;align=center;spacing=0;strokeColor=#333333;strokeOpacity=100;fillOpacity=100;rounded=1;absoluteArcSize=1;arcSize=12;fillColor=#ffffff;strokeWidth=0.8;lucidId=MqcVV5ANGu6o;" vertex="1" parent="1">
          <mxGeometry x="983" y="455" width="60" height="135" as="geometry" />
        </mxCell>
        <mxCell id="2DQe4uAKgCYchEltKK3G-139" value="" style="html=1;jettySize=18;whiteSpace=wrap;fontSize=13;strokeColor=#333333;strokeOpacity=100;strokeWidth=0.8;rounded=1;arcSize=10;edgeStyle=orthogonalEdgeStyle;startArrow=none;endArrow=block;endFill=1;entryX=-0.012;entryY=0.073;entryPerimeter=0;lucidId=MqcVYArAM2zq;" edge="1" parent="1" target="2DQe4uAKgCYchEltKK3G-135">
          <mxGeometry width="100" height="100" relative="1" as="geometry">
            <Array as="points" />
            <mxPoint x="1015" y="638" as="sourcePoint" />
          </mxGeometry>
        </mxCell>
        <mxCell id="2DQe4uAKgCYchEltKK3G-140" value="Create Note" style="text;html=1;resizable=0;labelBackgroundColor=default;align=center;verticalAlign=middle;fontSize=12.4;" vertex="1" parent="2DQe4uAKgCYchEltKK3G-139">
          <mxGeometry relative="1" as="geometry">
            <mxPoint as="offset" />
          </mxGeometry>
        </mxCell>
        <mxCell id="2DQe4uAKgCYchEltKK3G-141" value="Mobile App" style="html=1;overflow=block;blockSpacing=1;whiteSpace=wrap;fontSize=12.4;fontColor=default;align=center;spacing=0;strokeOpacity=0;fillOpacity=100;rounded=1;absoluteArcSize=1;arcSize=12;fillColor=#6db1ff;strokeWidth=0.8;" vertex="1" parent="1">
          <mxGeometry x="1177" y="431" width="143" height="92" as="geometry" />
        </mxCell>
        <mxCell id="2DQe4uAKgCYchEltKK3G-142" value="Brainstorm" style="html=1;overflow=block;blockSpacing=1;whiteSpace=wrap;fontSize=15;fontColor=#282c33;fontStyle=1;spacing=0;strokeColor=#282c33;strokeOpacity=100;fillOpacity=100;rounded=1;absoluteArcSize=1;arcSize=14.1;shadow=1;fillColor=#ffffff;strokeWidth=0.8;lucidId=DLgiPxCc6Pq1;" vertex="1" parent="1">
          <mxGeometry x="744" y="741" width="144" height="63" as="geometry" />
        </mxCell>
        <mxCell id="2DQe4uAKgCYchEltKK3G-143" value="Summarize" style="html=1;overflow=block;blockSpacing=1;whiteSpace=wrap;fontSize=15;fontColor=#282c33;fontStyle=1;spacing=0;strokeColor=#282c33;strokeOpacity=100;fillOpacity=100;rounded=1;absoluteArcSize=1;arcSize=13.6;shadow=1;fillColor=#ffffff;strokeWidth=0.8;lucidId=aX4sMsD8Zoq~;" vertex="1" parent="1">
          <mxGeometry x="711" y="637" width="177" height="89" as="geometry" />
        </mxCell>
        <mxCell id="2DQe4uAKgCYchEltKK3G-144" value="" style="html=1;jettySize=18;whiteSpace=wrap;fontSize=13;strokeColor=#333333;strokeOpacity=100;strokeWidth=0.8;rounded=1;arcSize=10;edgeStyle=orthogonalEdgeStyle;startArrow=none;endArrow=block;endFill=1;exitX=1.012;exitY=0.099;exitPerimeter=0;entryX=-0.012;entryY=0.05;entryPerimeter=0;lucidId=dApTWxwZsu-N;" edge="1" parent="1" source="2DQe4uAKgCYchEltKK3G-135" target="2DQe4uAKgCYchEltKK3G-132">
          <mxGeometry width="100" height="100" relative="1" as="geometry">
            <Array as="points" />
          </mxGeometry>
        </mxCell>
        <mxCell id="2DQe4uAKgCYchEltKK3G-145" value="Request to Store Note" style="text;html=1;resizable=0;labelBackgroundColor=default;align=center;verticalAlign=middle;fontSize=12.4;" vertex="1" parent="2DQe4uAKgCYchEltKK3G-144">
          <mxGeometry relative="1" as="geometry">
            <mxPoint as="offset" />
          </mxGeometry>
        </mxCell>
        <mxCell id="2DQe4uAKgCYchEltKK3G-146" value="" style="html=1;jettySize=18;whiteSpace=wrap;fontSize=13;strokeColor=#333333;strokeOpacity=100;strokeWidth=0.8;rounded=1;arcSize=10;edgeStyle=orthogonalEdgeStyle;startArrow=none;endArrow=block;endFill=1;exitX=1.012;exitY=0.068;exitPerimeter=0;entryX=-0.012;entryY=0.019;entryPerimeter=0;lucidId=~ApTN9mDXX_y;" edge="1" parent="1" source="2DQe4uAKgCYchEltKK3G-132" target="2DQe4uAKgCYchEltKK3G-134">
          <mxGeometry width="100" height="100" relative="1" as="geometry">
            <Array as="points" />
          </mxGeometry>
        </mxCell>
        <mxCell id="2DQe4uAKgCYchEltKK3G-147" value="Save to DB" style="text;html=1;resizable=0;labelBackgroundColor=default;align=center;verticalAlign=middle;fontSize=12.4;" vertex="1" parent="2DQe4uAKgCYchEltKK3G-146">
          <mxGeometry relative="1" as="geometry">
            <mxPoint as="offset" />
          </mxGeometry>
        </mxCell>
        <mxCell id="2DQe4uAKgCYchEltKK3G-148" value="" style="html=1;jettySize=18;whiteSpace=wrap;fontSize=13;strokeOpacity=100;dashed=1;fixDash=1;dashPattern=16 6;strokeWidth=0.8;rounded=1;arcSize=10;edgeStyle=orthogonalEdgeStyle;startArrow=none;endArrow=block;endFill=1;exitX=-0.012;exitY=0.081;exitPerimeter=0;entryX=1.012;entryY=0.129;entryPerimeter=0;lucidId=_XpTG0hsA4nP;" edge="1" parent="1" source="2DQe4uAKgCYchEltKK3G-134" target="2DQe4uAKgCYchEltKK3G-132">
          <mxGeometry width="100" height="100" relative="1" as="geometry">
            <Array as="points" />
          </mxGeometry>
        </mxCell>
        <mxCell id="2DQe4uAKgCYchEltKK3G-150" value="" style="html=1;jettySize=18;whiteSpace=wrap;fontSize=13;strokeOpacity=100;dashed=1;fixDash=1;dashPattern=16 6;strokeWidth=0.8;rounded=1;arcSize=10;edgeStyle=orthogonalEdgeStyle;startArrow=none;endArrow=block;endFill=1;exitX=-0.012;exitY=0.135;exitPerimeter=0;lucidId=t0pTK.cDY_sK;" edge="1" parent="1" source="2DQe4uAKgCYchEltKK3G-132">
          <mxGeometry width="100" height="100" relative="1" as="geometry">
            <Array as="points" />
            <mxPoint x="1260" y="731" as="targetPoint" />
          </mxGeometry>
        </mxCell>
        <mxCell id="2DQe4uAKgCYchEltKK3G-152" value="" style="html=1;jettySize=18;whiteSpace=wrap;fontSize=13;strokeOpacity=100;dashed=1;fixDash=1;dashPattern=16 6;strokeWidth=0.8;rounded=1;arcSize=10;edgeStyle=orthogonalEdgeStyle;startArrow=none;endArrow=block;endFill=1;exitX=-0.012;exitY=0.196;exitPerimeter=0;lucidId=M0pTLRo4j7jS;" edge="1" parent="1" source="2DQe4uAKgCYchEltKK3G-135">
          <mxGeometry width="100" height="100" relative="1" as="geometry">
            <Array as="points" />
            <mxPoint x="1013" y="746" as="targetPoint" />
          </mxGeometry>
        </mxCell>
        <mxCell id="2DQe4uAKgCYchEltKK3G-154" value="" style="html=1;jettySize=18;whiteSpace=wrap;fontSize=13;strokeOpacity=100;dashed=1;fixDash=1;dashPattern=16 6;strokeWidth=0.8;rounded=1;arcSize=10;edgeStyle=orthogonalEdgeStyle;startArrow=none;endArrow=block;endFill=1;exitX=-0.012;exitY=0.191;exitPerimeter=0;lucidId=65pT8uCV6Lzu;" edge="1" parent="1" source="2DQe4uAKgCYchEltKK3G-134">
          <mxGeometry width="100" height="100" relative="1" as="geometry">
            <Array as="points" />
            <mxPoint x="1534" y="814" as="targetPoint" />
          </mxGeometry>
        </mxCell>
        <mxCell id="2DQe4uAKgCYchEltKK3G-156" value="" style="html=1;jettySize=18;whiteSpace=wrap;fontSize=13;strokeOpacity=100;dashed=1;fixDash=1;dashPattern=16 6;strokeWidth=0.8;rounded=1;arcSize=10;edgeStyle=orthogonalEdgeStyle;startArrow=none;endArrow=block;endFill=1;entryX=1.012;entryY=0.291;entryPerimeter=0;lucidId=x6pT0xZqV7Lq;" edge="1" parent="1" target="2DQe4uAKgCYchEltKK3G-135">
          <mxGeometry width="100" height="100" relative="1" as="geometry">
            <Array as="points" />
            <mxPoint x="1504" y="829" as="sourcePoint" />
          </mxGeometry>
        </mxCell>
        <mxCell id="2DQe4uAKgCYchEltKK3G-158" value="" style="html=1;jettySize=18;whiteSpace=wrap;fontSize=13;strokeOpacity=100;dashed=1;fixDash=1;dashPattern=16 6;strokeWidth=0.8;rounded=1;arcSize=10;edgeStyle=orthogonalEdgeStyle;startArrow=none;endArrow=block;endFill=1;exitX=-0.012;exitY=0.308;exitPerimeter=0;lucidId=G6pT-y07gb1a;" edge="1" parent="1" source="2DQe4uAKgCYchEltKK3G-135">
          <mxGeometry width="100" height="100" relative="1" as="geometry">
            <Array as="points" />
            <mxPoint x="1013" y="844" as="targetPoint" />
          </mxGeometry>
        </mxCell>
        <mxCell id="2DQe4uAKgCYchEltKK3G-160" value="" style="html=1;jettySize=18;whiteSpace=wrap;fontSize=13;strokeColor=#333333;strokeOpacity=100;strokeWidth=0.8;rounded=1;arcSize=10;edgeStyle=orthogonalEdgeStyle;startArrow=none;endArrow=block;endFill=1;entryX=-0.012;entryY=0.411;entryPerimeter=0;lucidId=4-pT5Qhd-O3v;" edge="1" parent="1" target="2DQe4uAKgCYchEltKK3G-135">
          <mxGeometry width="100" height="100" relative="1" as="geometry">
            <Array as="points" />
            <mxPoint x="1013" y="935" as="sourcePoint" />
          </mxGeometry>
        </mxCell>
        <mxCell id="2DQe4uAKgCYchEltKK3G-161" value="&lt;span style=&quot;font-size: 14px; text-wrap-mode: wrap; background-color: rgb(251, 251, 251);&quot;&gt;Exception&lt;/span&gt;" style="text;html=1;resizable=0;labelBackgroundColor=default;align=center;verticalAlign=middle;fontSize=12.4;" vertex="1" parent="2DQe4uAKgCYchEltKK3G-160">
          <mxGeometry relative="1" as="geometry">
            <mxPoint x="537" y="-135" as="offset" />
          </mxGeometry>
        </mxCell>
        <mxCell id="2DQe4uAKgCYchEltKK3G-162" value="" style="html=1;jettySize=18;whiteSpace=wrap;fontSize=13;strokeColor=#333333;strokeOpacity=100;strokeWidth=0.8;rounded=1;arcSize=10;edgeStyle=orthogonalEdgeStyle;startArrow=none;endArrow=block;endFill=1;exitX=1.012;exitY=0.439;exitPerimeter=0;entryX=-0.012;entryY=0.409;entryPerimeter=0;lucidId=B_pT7TzZo.AE;" edge="1" parent="1" source="2DQe4uAKgCYchEltKK3G-135" target="2DQe4uAKgCYchEltKK3G-132">
          <mxGeometry width="100" height="100" relative="1" as="geometry">
            <Array as="points" />
          </mxGeometry>
        </mxCell>
        <mxCell id="2DQe4uAKgCYchEltKK3G-163" value="Send Request" style="text;html=1;resizable=0;labelBackgroundColor=default;align=center;verticalAlign=middle;fontSize=12.4;" vertex="1" parent="2DQe4uAKgCYchEltKK3G-162">
          <mxGeometry relative="1" as="geometry">
            <mxPoint x="-3" y="-10" as="offset" />
          </mxGeometry>
        </mxCell>
        <mxCell id="2DQe4uAKgCYchEltKK3G-164" value="" style="html=1;jettySize=18;whiteSpace=wrap;fontSize=13;strokeColor=#333333;strokeOpacity=100;strokeWidth=0.8;rounded=1;arcSize=10;edgeStyle=orthogonalEdgeStyle;startArrow=none;endArrow=block;endFill=1;exitX=1.012;exitY=0.427;exitPerimeter=0;entryX=-0.012;entryY=0.389;entryPerimeter=0;lucidId=W_pTTXotba5e;" edge="1" parent="1" source="2DQe4uAKgCYchEltKK3G-132" target="2DQe4uAKgCYchEltKK3G-134">
          <mxGeometry width="100" height="100" relative="1" as="geometry">
            <Array as="points" />
          </mxGeometry>
        </mxCell>
        <mxCell id="2DQe4uAKgCYchEltKK3G-165" value="Query DB" style="text;html=1;resizable=0;labelBackgroundColor=default;align=center;verticalAlign=middle;fontSize=12.4;" vertex="1" parent="2DQe4uAKgCYchEltKK3G-164">
          <mxGeometry relative="1" as="geometry">
            <mxPoint x="6" y="-15" as="offset" />
          </mxGeometry>
        </mxCell>
        <mxCell id="2DQe4uAKgCYchEltKK3G-166" value="" style="html=1;jettySize=18;whiteSpace=wrap;fontSize=13;strokeOpacity=100;dashed=1;fixDash=1;dashPattern=16 6;strokeWidth=0.8;rounded=1;arcSize=10;edgeStyle=orthogonalEdgeStyle;startArrow=none;endArrow=block;endFill=1;lucidId=seqTZgDuHPt5;" edge="1" parent="1">
          <mxGeometry width="100" height="100" relative="1" as="geometry">
            <Array as="points" />
            <mxPoint x="1777" y="1058" as="sourcePoint" />
            <mxPoint x="1538" y="1058" as="targetPoint" />
          </mxGeometry>
        </mxCell>
        <mxCell id="2DQe4uAKgCYchEltKK3G-168" value="" style="html=1;jettySize=18;whiteSpace=wrap;fontSize=13;strokeOpacity=100;dashed=1;fixDash=1;dashPattern=16 6;strokeWidth=0.8;rounded=1;arcSize=10;edgeStyle=orthogonalEdgeStyle;startArrow=none;endArrow=block;endFill=1;lucidId=AfqTia_m85Gl;" edge="1" parent="1">
          <mxGeometry width="100" height="100" relative="1" as="geometry">
            <Array as="points" />
            <mxPoint x="1503" y="1071" as="sourcePoint" />
            <mxPoint x="1260" y="1071" as="targetPoint" />
          </mxGeometry>
        </mxCell>
        <mxCell id="2DQe4uAKgCYchEltKK3G-170" value="" style="html=1;jettySize=18;whiteSpace=wrap;fontSize=13;strokeOpacity=100;dashed=1;fixDash=1;dashPattern=16 6;strokeWidth=0.8;rounded=1;arcSize=10;edgeStyle=orthogonalEdgeStyle;startArrow=none;endArrow=block;endFill=1;lucidId=AgqT~nqpI1ge;" edge="1" parent="1">
          <mxGeometry width="100" height="100" relative="1" as="geometry">
            <Array as="points" />
            <mxPoint x="1233" y="1091" as="sourcePoint" />
            <mxPoint x="1012" y="1091" as="targetPoint" />
          </mxGeometry>
        </mxCell>
        <mxCell id="2DQe4uAKgCYchEltKK3G-172" value="" style="html=1;jettySize=18;whiteSpace=wrap;fontSize=13;strokeOpacity=100;dashed=1;fixDash=1;dashPattern=16 6;strokeWidth=0.8;rounded=1;arcSize=10;edgeStyle=orthogonalEdgeStyle;startArrow=none;endArrow=block;endFill=1;lucidId=vhqT8Fl-DFvH;" edge="1" parent="1">
          <mxGeometry width="100" height="100" relative="1" as="geometry">
            <Array as="points" />
            <mxPoint x="1774" y="1144" as="sourcePoint" />
            <mxPoint x="1534" y="1144" as="targetPoint" />
          </mxGeometry>
        </mxCell>
        <mxCell id="2DQe4uAKgCYchEltKK3G-174" value="" style="html=1;jettySize=18;whiteSpace=wrap;fontSize=13;strokeOpacity=100;dashed=1;fixDash=1;dashPattern=16 6;strokeWidth=0.8;rounded=1;arcSize=10;edgeStyle=orthogonalEdgeStyle;startArrow=none;endArrow=block;endFill=1;lucidId=LhqT8P3UGN1E;" edge="1" parent="1">
          <mxGeometry width="100" height="100" relative="1" as="geometry">
            <Array as="points" />
            <mxPoint x="1501" y="1159" as="sourcePoint" />
            <mxPoint x="1262" y="1159" as="targetPoint" />
          </mxGeometry>
        </mxCell>
        <mxCell id="2DQe4uAKgCYchEltKK3G-176" value="" style="html=1;jettySize=18;whiteSpace=wrap;fontSize=13;strokeOpacity=100;dashed=1;fixDash=1;dashPattern=16 6;strokeWidth=0.8;rounded=1;arcSize=10;edgeStyle=orthogonalEdgeStyle;startArrow=none;endArrow=block;endFill=1;lucidId=0hqTsIfL4JAx;" edge="1" parent="1">
          <mxGeometry width="100" height="100" relative="1" as="geometry">
            <Array as="points" />
            <mxPoint x="1233" y="1166" as="sourcePoint" />
            <mxPoint x="1012" y="1166" as="targetPoint" />
          </mxGeometry>
        </mxCell>
        <mxCell id="2DQe4uAKgCYchEltKK3G-178" value="" style="html=1;jettySize=18;whiteSpace=wrap;fontSize=13;strokeColor=#333333;strokeOpacity=100;strokeWidth=0.8;rounded=1;arcSize=10;edgeStyle=orthogonalEdgeStyle;startArrow=none;endArrow=block;endFill=1;exitX=1.012;exitY=0.821;exitPerimeter=0;entryX=-0.012;entryY=0.796;entryPerimeter=0;lucidId=HlqTTmx3ZjP~;" edge="1" parent="1" source="2DQe4uAKgCYchEltKK3G-132" target="2DQe4uAKgCYchEltKK3G-134">
          <mxGeometry width="100" height="100" relative="1" as="geometry">
            <Array as="points" />
          </mxGeometry>
        </mxCell>
        <mxCell id="2DQe4uAKgCYchEltKK3G-179" value="Query DB for Expired Notes" style="text;html=1;resizable=0;labelBackgroundColor=default;align=center;verticalAlign=middle;fontSize=12.4;" vertex="1" parent="2DQe4uAKgCYchEltKK3G-178">
          <mxGeometry relative="1" as="geometry">
            <mxPoint x="1" y="-15" as="offset" />
          </mxGeometry>
        </mxCell>
        <mxCell id="2DQe4uAKgCYchEltKK3G-180" value="" style="html=1;jettySize=18;whiteSpace=wrap;fontSize=13;strokeOpacity=100;dashed=1;fixDash=1;dashPattern=16 6;strokeWidth=0.8;rounded=1;arcSize=10;edgeStyle=orthogonalEdgeStyle;startArrow=none;endArrow=block;endFill=1;lucidId=snqT7pPORbaU;" edge="1" parent="1">
          <mxGeometry width="100" height="100" relative="1" as="geometry">
            <Array as="points" />
            <mxPoint x="1773" y="1356" as="sourcePoint" />
            <mxPoint x="1534" y="1356" as="targetPoint" />
          </mxGeometry>
        </mxCell>
        <mxCell id="2DQe4uAKgCYchEltKK3G-182" value="" style="html=1;jettySize=18;whiteSpace=wrap;fontSize=13;strokeOpacity=100;dashed=1;fixDash=1;dashPattern=16 6;strokeWidth=0.8;rounded=1;arcSize=10;edgeStyle=orthogonalEdgeStyle;startArrow=none;endArrow=block;endFill=1;lucidId=YnqT91g6~6WP;" edge="1" parent="1">
          <mxGeometry width="100" height="100" relative="1" as="geometry">
            <Array as="points" />
            <mxPoint x="1503" y="1371" as="sourcePoint" />
            <mxPoint x="1260" y="1371" as="targetPoint" />
          </mxGeometry>
        </mxCell>
        <mxCell id="2DQe4uAKgCYchEltKK3G-184" value="Accessing notes" style="text;html=1;resizable=0;labelBackgroundColor=default;align=center;verticalAlign=middle;fontSize=12.4;" vertex="1" parent="1">
          <mxGeometry x="1121.4997152918231" y="920.0002712884177" as="geometry" />
        </mxCell>
        <mxCell id="2DQe4uAKgCYchEltKK3G-185" value="&lt;span style=&quot;font-size: 14px; text-wrap-mode: wrap; background-color: rgb(251, 251, 251);&quot;&gt;Exception&lt;/span&gt;" style="text;html=1;resizable=0;labelBackgroundColor=default;align=center;verticalAlign=middle;fontSize=12.4;" vertex="1" parent="1">
          <mxGeometry x="1381.4997152918231" y="820.0002712884175" as="geometry" />
        </mxCell>
        <mxCell id="2DQe4uAKgCYchEltKK3G-186" value="&lt;span style=&quot;font-size: 14px; text-wrap-mode: wrap; background-color: rgb(251, 251, 251);&quot;&gt;Exception&lt;/span&gt;" style="text;html=1;resizable=0;labelBackgroundColor=default;align=center;verticalAlign=middle;fontSize=12.4;" vertex="1" parent="1">
          <mxGeometry x="1120.9997152918231" y="830.0002712884175" as="geometry" />
        </mxCell>
        <mxCell id="2DQe4uAKgCYchEltKK3G-189" value="" style="edgeStyle=orthogonalEdgeStyle;rounded=0;orthogonalLoop=1;jettySize=auto;html=1;" edge="1" parent="1" source="2DQe4uAKgCYchEltKK3G-188">
          <mxGeometry relative="1" as="geometry">
            <mxPoint x="1119.9997152918231" y="735" as="targetPoint" />
          </mxGeometry>
        </mxCell>
        <mxCell id="2DQe4uAKgCYchEltKK3G-192" value="" style="edgeStyle=orthogonalEdgeStyle;rounded=0;orthogonalLoop=1;jettySize=auto;html=1;" edge="1" parent="1" source="2DQe4uAKgCYchEltKK3G-188" target="2DQe4uAKgCYchEltKK3G-125">
          <mxGeometry relative="1" as="geometry" />
        </mxCell>
        <mxCell id="2DQe4uAKgCYchEltKK3G-188" value="&lt;span style=&quot;font-size: 14px; text-wrap-mode: wrap; background-color: rgb(251, 251, 251);&quot;&gt;&amp;nbsp;success message&lt;/span&gt;" style="text;html=1;resizable=0;labelBackgroundColor=default;align=center;verticalAlign=middle;fontSize=12.4;" vertex="1" parent="1">
          <mxGeometry x="1119.9997152918231" y="726.0002712884175" as="geometry" />
        </mxCell>
        <mxCell id="2DQe4uAKgCYchEltKK3G-193" value="&lt;span style=&quot;font-size: 14px; text-wrap-mode: wrap; background-color: rgb(251, 251, 251);&quot;&gt;OK&lt;/span&gt;" style="text;html=1;resizable=0;labelBackgroundColor=default;align=center;verticalAlign=middle;fontSize=12.4;" vertex="1" parent="1">
          <mxGeometry x="1381.4997152918231" y="720.0002712884175" as="geometry" />
        </mxCell>
        <mxCell id="2DQe4uAKgCYchEltKK3G-196" value="&lt;span style=&quot;font-size: 14px; text-wrap-mode: wrap; background-color: rgb(251, 251, 251);&quot;&gt;OK&lt;/span&gt;" style="text;html=1;resizable=0;labelBackgroundColor=default;align=center;verticalAlign=middle;fontSize=12.4;" vertex="1" parent="1">
          <mxGeometry x="1669.9997152918231" y="720.0002712884175" as="geometry" />
        </mxCell>
        <mxCell id="2DQe4uAKgCYchEltKK3G-197" value="" style="endArrow=none;dashed=1;html=1;rounded=0;exitX=0.004;exitY=0.493;exitDx=0;exitDy=0;exitPerimeter=0;" edge="1" parent="1" source="2DQe4uAKgCYchEltKK3G-125">
          <mxGeometry width="50" height="50" relative="1" as="geometry">
            <mxPoint x="1200" y="970" as="sourcePoint" />
            <mxPoint x="1850" y="786" as="targetPoint" />
          </mxGeometry>
        </mxCell>
        <mxCell id="2DQe4uAKgCYchEltKK3G-198" value="&lt;font style=&quot;font-size: 10px;&quot;&gt;[SUCCESS]&lt;/font&gt;" style="text;strokeColor=none;fillColor=none;align=left;verticalAlign=middle;spacingLeft=4;spacingRight=4;overflow=hidden;points=[[0,0.5],[1,0.5]];portConstraint=eastwest;rotatable=0;whiteSpace=wrap;html=1;" vertex="1" parent="1">
          <mxGeometry x="915" y="726" width="80" height="30" as="geometry" />
        </mxCell>
        <mxCell id="2DQe4uAKgCYchEltKK3G-199" value="&lt;font style=&quot;font-size: 10px;&quot;&gt;[EXCEPTION]&lt;/font&gt;" style="text;strokeColor=none;fillColor=none;align=left;verticalAlign=middle;spacingLeft=4;spacingRight=4;overflow=hidden;points=[[0,0.5],[1,0.5]];portConstraint=eastwest;rotatable=0;whiteSpace=wrap;html=1;" vertex="1" parent="1">
          <mxGeometry x="915" y="790" width="80" height="30" as="geometry" />
        </mxCell>
        <mxCell id="2DQe4uAKgCYchEltKK3G-215" value="&lt;span data-lucid-content=&quot;{&amp;quot;t&amp;quot;:&amp;quot;Display Notes&amp;quot;,&amp;quot;m&amp;quot;:[{&amp;quot;s&amp;quot;:0,&amp;quot;n&amp;quot;:&amp;quot;a&amp;quot;,&amp;quot;v&amp;quot;:&amp;quot;center&amp;quot;},{&amp;quot;s&amp;quot;:0,&amp;quot;n&amp;quot;:&amp;quot;s&amp;quot;,&amp;quot;v&amp;quot;:18,&amp;quot;e&amp;quot;:13},{&amp;quot;s&amp;quot;:0,&amp;quot;n&amp;quot;:&amp;quot;fsp&amp;quot;,&amp;quot;v&amp;quot;:&amp;quot;ss_presetShapeStyle1_textStyle&amp;quot;,&amp;quot;e&amp;quot;:13},{&amp;quot;s&amp;quot;:0,&amp;quot;n&amp;quot;:&amp;quot;fsp2&amp;quot;,&amp;quot;v&amp;quot;:&amp;quot;ss_presetShapeStyle1_textStyle&amp;quot;,&amp;quot;e&amp;quot;:13}]}&quot; data-lucid-type=&quot;application/vnd.lucid.text&quot;&gt;&lt;span style=&quot;color:#3a414a;font-size:13.5px;&quot;&gt;Display Notes&lt;/span&gt;&lt;/span&gt;" style="text;strokeColor=none;fillColor=none;align=left;verticalAlign=middle;spacingLeft=4;spacingRight=4;overflow=hidden;points=[[0,0.5],[1,0.5]];portConstraint=eastwest;rotatable=0;whiteSpace=wrap;html=1;" vertex="1" parent="1">
          <mxGeometry x="1070" y="1060" width="103" height="30" as="geometry" />
        </mxCell>
        <mxCell id="2DQe4uAKgCYchEltKK3G-216" value="&lt;span data-lucid-content=&quot;{&amp;quot;t&amp;quot;:&amp;quot;Extract Notes&amp;quot;,&amp;quot;m&amp;quot;:[{&amp;quot;s&amp;quot;:0,&amp;quot;n&amp;quot;:&amp;quot;a&amp;quot;,&amp;quot;v&amp;quot;:&amp;quot;center&amp;quot;},{&amp;quot;s&amp;quot;:0,&amp;quot;n&amp;quot;:&amp;quot;s&amp;quot;,&amp;quot;v&amp;quot;:18,&amp;quot;e&amp;quot;:13},{&amp;quot;s&amp;quot;:0,&amp;quot;n&amp;quot;:&amp;quot;fsp&amp;quot;,&amp;quot;v&amp;quot;:&amp;quot;ss_presetShapeStyle1_textStyle&amp;quot;,&amp;quot;e&amp;quot;:13},{&amp;quot;s&amp;quot;:0,&amp;quot;n&amp;quot;:&amp;quot;fsp2&amp;quot;,&amp;quot;v&amp;quot;:&amp;quot;ss_presetShapeStyle1_textStyle&amp;quot;,&amp;quot;e&amp;quot;:13}]}&quot; data-lucid-type=&quot;application/vnd.lucid.text&quot;&gt;&lt;span style=&quot;color:#3a414a;font-size:13.5px;&quot;&gt;Extract Notes&lt;/span&gt;&lt;/span&gt;" style="text;strokeColor=none;fillColor=none;align=left;verticalAlign=middle;spacingLeft=4;spacingRight=4;overflow=hidden;points=[[0,0.5],[1,0.5]];portConstraint=eastwest;rotatable=0;whiteSpace=wrap;html=1;" vertex="1" parent="1">
          <mxGeometry x="1340" y="1040" width="100" height="30" as="geometry" />
        </mxCell>
        <mxCell id="2DQe4uAKgCYchEltKK3G-217" value="&lt;span data-lucid-content=&quot;{&amp;quot;t&amp;quot;:&amp;quot;Return Object&amp;quot;,&amp;quot;m&amp;quot;:[{&amp;quot;s&amp;quot;:0,&amp;quot;n&amp;quot;:&amp;quot;a&amp;quot;,&amp;quot;v&amp;quot;:&amp;quot;center&amp;quot;},{&amp;quot;s&amp;quot;:0,&amp;quot;n&amp;quot;:&amp;quot;s&amp;quot;,&amp;quot;v&amp;quot;:18,&amp;quot;e&amp;quot;:13},{&amp;quot;s&amp;quot;:0,&amp;quot;n&amp;quot;:&amp;quot;fsp&amp;quot;,&amp;quot;v&amp;quot;:&amp;quot;ss_presetShapeStyle1_textStyle&amp;quot;,&amp;quot;e&amp;quot;:13},{&amp;quot;s&amp;quot;:0,&amp;quot;n&amp;quot;:&amp;quot;fsp2&amp;quot;,&amp;quot;v&amp;quot;:&amp;quot;ss_presetShapeStyle1_textStyle&amp;quot;,&amp;quot;e&amp;quot;:13}]}&quot; data-lucid-type=&quot;application/vnd.lucid.text&quot;&gt;&lt;span style=&quot;color:#3a414a;font-size:13.5px;&quot;&gt;Return Object&lt;/span&gt;&lt;/span&gt;" style="text;strokeColor=none;fillColor=none;align=left;verticalAlign=middle;spacingLeft=4;spacingRight=4;overflow=hidden;points=[[0,0.5],[1,0.5]];portConstraint=eastwest;rotatable=0;whiteSpace=wrap;html=1;" vertex="1" parent="1">
          <mxGeometry x="1610" y="1031" width="100" height="30" as="geometry" />
        </mxCell>
        <mxCell id="2DQe4uAKgCYchEltKK3G-218" value="&lt;span data-lucid-content=&quot;{&amp;quot;t&amp;quot;:&amp;quot;Display Error Msg&amp;quot;,&amp;quot;m&amp;quot;:[{&amp;quot;s&amp;quot;:0,&amp;quot;n&amp;quot;:&amp;quot;a&amp;quot;,&amp;quot;v&amp;quot;:&amp;quot;center&amp;quot;},{&amp;quot;s&amp;quot;:0,&amp;quot;n&amp;quot;:&amp;quot;s&amp;quot;,&amp;quot;v&amp;quot;:18,&amp;quot;e&amp;quot;:17},{&amp;quot;s&amp;quot;:0,&amp;quot;n&amp;quot;:&amp;quot;fsp&amp;quot;,&amp;quot;v&amp;quot;:&amp;quot;ss_presetShapeStyle1_textStyle&amp;quot;,&amp;quot;e&amp;quot;:17},{&amp;quot;s&amp;quot;:0,&amp;quot;n&amp;quot;:&amp;quot;fsp2&amp;quot;,&amp;quot;v&amp;quot;:&amp;quot;ss_presetShapeStyle1_textStyle&amp;quot;,&amp;quot;e&amp;quot;:17}]}&quot; data-lucid-type=&quot;application/vnd.lucid.text&quot;&gt;&lt;span style=&quot;color:#3a414a;font-size:13.5px;&quot;&gt;Display Error Msg&lt;/span&gt;&lt;/span&gt;" style="text;strokeColor=none;fillColor=none;align=left;verticalAlign=middle;spacingLeft=4;spacingRight=4;overflow=hidden;points=[[0,0.5],[1,0.5]];portConstraint=eastwest;rotatable=0;whiteSpace=wrap;html=1;" vertex="1" parent="1">
          <mxGeometry x="1060" y="1140" width="123" height="30" as="geometry" />
        </mxCell>
        <mxCell id="2DQe4uAKgCYchEltKK3G-219" value="&lt;span data-lucid-content=&quot;{&amp;quot;t&amp;quot;:&amp;quot;Exception&amp;quot;,&amp;quot;m&amp;quot;:[{&amp;quot;s&amp;quot;:0,&amp;quot;n&amp;quot;:&amp;quot;a&amp;quot;,&amp;quot;v&amp;quot;:&amp;quot;center&amp;quot;},{&amp;quot;s&amp;quot;:0,&amp;quot;n&amp;quot;:&amp;quot;s&amp;quot;,&amp;quot;v&amp;quot;:18,&amp;quot;e&amp;quot;:9},{&amp;quot;s&amp;quot;:0,&amp;quot;n&amp;quot;:&amp;quot;fsp&amp;quot;,&amp;quot;v&amp;quot;:&amp;quot;ss_presetShapeStyle1_textStyle&amp;quot;,&amp;quot;e&amp;quot;:9},{&amp;quot;s&amp;quot;:0,&amp;quot;n&amp;quot;:&amp;quot;fsp2&amp;quot;,&amp;quot;v&amp;quot;:&amp;quot;ss_presetShapeStyle1_textStyle&amp;quot;,&amp;quot;e&amp;quot;:9}]}&quot; data-lucid-type=&quot;application/vnd.lucid.text&quot;&gt;&lt;span style=&quot;color:#3a414a;font-size:13.5px;&quot;&gt;Exception&lt;/span&gt;&lt;/span&gt;" style="text;strokeColor=none;fillColor=none;align=left;verticalAlign=middle;spacingLeft=4;spacingRight=4;overflow=hidden;points=[[0,0.5],[1,0.5]];portConstraint=eastwest;rotatable=0;whiteSpace=wrap;html=1;" vertex="1" parent="1">
          <mxGeometry x="1350" y="1130" width="80" height="30" as="geometry" />
        </mxCell>
        <mxCell id="2DQe4uAKgCYchEltKK3G-220" value="&lt;span data-lucid-content=&quot;{&amp;quot;t&amp;quot;:&amp;quot;Exception&amp;quot;,&amp;quot;m&amp;quot;:[{&amp;quot;s&amp;quot;:0,&amp;quot;n&amp;quot;:&amp;quot;a&amp;quot;,&amp;quot;v&amp;quot;:&amp;quot;center&amp;quot;},{&amp;quot;s&amp;quot;:0,&amp;quot;n&amp;quot;:&amp;quot;s&amp;quot;,&amp;quot;v&amp;quot;:18,&amp;quot;e&amp;quot;:9},{&amp;quot;s&amp;quot;:0,&amp;quot;n&amp;quot;:&amp;quot;fsp&amp;quot;,&amp;quot;v&amp;quot;:&amp;quot;ss_presetShapeStyle1_textStyle&amp;quot;,&amp;quot;e&amp;quot;:9},{&amp;quot;s&amp;quot;:0,&amp;quot;n&amp;quot;:&amp;quot;fsp2&amp;quot;,&amp;quot;v&amp;quot;:&amp;quot;ss_presetShapeStyle1_textStyle&amp;quot;,&amp;quot;e&amp;quot;:9}]}&quot; data-lucid-type=&quot;application/vnd.lucid.text&quot;&gt;&lt;span style=&quot;color:#3a414a;font-size:13.5px;&quot;&gt;Exception&lt;/span&gt;&lt;/span&gt;" style="text;strokeColor=none;fillColor=none;align=left;verticalAlign=middle;spacingLeft=4;spacingRight=4;overflow=hidden;points=[[0,0.5],[1,0.5]];portConstraint=eastwest;rotatable=0;whiteSpace=wrap;html=1;" vertex="1" parent="1">
          <mxGeometry x="1620" y="1120" width="80" height="30" as="geometry" />
        </mxCell>
        <mxCell id="2DQe4uAKgCYchEltKK3G-221" value="&lt;span style=&quot;font-size: 10px;&quot;&gt;[SUCCESS]&lt;/span&gt;" style="text;strokeColor=none;fillColor=none;align=left;verticalAlign=middle;spacingLeft=4;spacingRight=4;overflow=hidden;points=[[0,0.5],[1,0.5]];portConstraint=eastwest;rotatable=0;whiteSpace=wrap;html=1;" vertex="1" parent="1">
          <mxGeometry x="915" y="1050" width="80" height="30" as="geometry" />
        </mxCell>
        <mxCell id="2DQe4uAKgCYchEltKK3G-222" value="&lt;span style=&quot;font-size: 10px;&quot;&gt;[EXCEPTION]&lt;/span&gt;" style="text;strokeColor=none;fillColor=none;align=left;verticalAlign=middle;spacingLeft=4;spacingRight=4;overflow=hidden;points=[[0,0.5],[1,0.5]];portConstraint=eastwest;rotatable=0;whiteSpace=wrap;html=1;" vertex="1" parent="1">
          <mxGeometry x="915" y="1120" width="80" height="30" as="geometry" />
        </mxCell>
        <mxCell id="2DQe4uAKgCYchEltKK3G-223" value="" style="endArrow=none;dashed=1;html=1;rounded=0;exitX=0.004;exitY=0.493;exitDx=0;exitDy=0;exitPerimeter=0;" edge="1" parent="1">
          <mxGeometry width="50" height="50" relative="1" as="geometry">
            <mxPoint x="915" y="1110" as="sourcePoint" />
            <mxPoint x="1846" y="1110" as="targetPoint" />
          </mxGeometry>
        </mxCell>
        <UserObject label="&lt;span data-lucid-content=&quot;{&amp;quot;t&amp;quot;:&amp;quot;Return Object&amp;quot;,&amp;quot;m&amp;quot;:[{&amp;quot;s&amp;quot;:0,&amp;quot;n&amp;quot;:&amp;quot;a&amp;quot;,&amp;quot;v&amp;quot;:&amp;quot;center&amp;quot;},{&amp;quot;s&amp;quot;:0,&amp;quot;n&amp;quot;:&amp;quot;s&amp;quot;,&amp;quot;v&amp;quot;:18,&amp;quot;e&amp;quot;:13},{&amp;quot;s&amp;quot;:0,&amp;quot;n&amp;quot;:&amp;quot;fsp&amp;quot;,&amp;quot;v&amp;quot;:&amp;quot;ss_presetShapeStyle1_textStyle&amp;quot;,&amp;quot;e&amp;quot;:13},{&amp;quot;s&amp;quot;:0,&amp;quot;n&amp;quot;:&amp;quot;fsp2&amp;quot;,&amp;quot;v&amp;quot;:&amp;quot;ss_presetShapeStyle1_textStyle&amp;quot;,&amp;quot;e&amp;quot;:13}]}&quot; data-lucid-type=&quot;application/vnd.lucid.text&quot;&gt;&lt;span style=&quot;color:#3a414a;font-size:13.5px;&quot;&gt;Return Object&lt;/span&gt;&lt;/span&gt;" link="&lt;span data-lucid-content=&quot;{&amp;quot;t&amp;quot;:&amp;quot;Return Object&amp;quot;,&amp;quot;m&amp;quot;:[{&amp;quot;s&amp;quot;:0,&amp;quot;n&amp;quot;:&amp;quot;a&amp;quot;,&amp;quot;v&amp;quot;:&amp;quot;center&amp;quot;},{&amp;quot;s&amp;quot;:0,&amp;quot;n&amp;quot;:&amp;quot;s&amp;quot;,&amp;quot;v&amp;quot;:18,&amp;quot;e&amp;quot;:13},{&amp;quot;s&amp;quot;:0,&amp;quot;n&amp;quot;:&amp;quot;fsp&amp;quot;,&amp;quot;v&amp;quot;:&amp;quot;ss_presetShapeStyle1_textStyle&amp;quot;,&amp;quot;e&amp;quot;:13},{&amp;quot;s&amp;quot;:0,&amp;quot;n&amp;quot;:&amp;quot;fsp2&amp;quot;,&amp;quot;v&amp;quot;:&amp;quot;ss_presetShapeStyle1_textStyle&amp;quot;,&amp;quot;e&amp;quot;:13}]}&quot; data-lucid-type=&quot;application/vnd.lucid.text&quot;&gt;&lt;span style=&quot;color:#3a414a;font-size:13.5px;&quot;&gt;Return Object&lt;/span&gt;&lt;/span&gt;" id="2DQe4uAKgCYchEltKK3G-224">
          <mxCell style="text;strokeColor=none;fillColor=none;align=left;verticalAlign=middle;spacingLeft=4;spacingRight=4;overflow=hidden;points=[[0,0.5],[1,0.5]];portConstraint=eastwest;rotatable=0;whiteSpace=wrap;html=1;" vertex="1" parent="1">
            <mxGeometry x="1600" y="1330" width="110" height="30" as="geometry" />
          </mxCell>
        </UserObject>
        <mxCell id="2DQe4uAKgCYchEltKK3G-225" value="&lt;span data-lucid-content=&quot;{&amp;quot;t&amp;quot;:&amp;quot;Extract Notes&amp;quot;,&amp;quot;m&amp;quot;:[{&amp;quot;s&amp;quot;:0,&amp;quot;n&amp;quot;:&amp;quot;a&amp;quot;,&amp;quot;v&amp;quot;:&amp;quot;center&amp;quot;},{&amp;quot;s&amp;quot;:0,&amp;quot;n&amp;quot;:&amp;quot;s&amp;quot;,&amp;quot;v&amp;quot;:18,&amp;quot;e&amp;quot;:13},{&amp;quot;s&amp;quot;:0,&amp;quot;n&amp;quot;:&amp;quot;fsp&amp;quot;,&amp;quot;v&amp;quot;:&amp;quot;ss_presetShapeStyle1_textStyle&amp;quot;,&amp;quot;e&amp;quot;:13},{&amp;quot;s&amp;quot;:0,&amp;quot;n&amp;quot;:&amp;quot;fsp2&amp;quot;,&amp;quot;v&amp;quot;:&amp;quot;ss_presetShapeStyle1_textStyle&amp;quot;,&amp;quot;e&amp;quot;:13}]}&quot; data-lucid-type=&quot;application/vnd.lucid.text&quot;&gt;&lt;span style=&quot;color:#3a414a;font-size:13.5px;&quot;&gt;Extract Notes&lt;/span&gt;&lt;/span&gt;" style="text;strokeColor=none;fillColor=none;align=left;verticalAlign=middle;spacingLeft=4;spacingRight=4;overflow=hidden;points=[[0,0.5],[1,0.5]];portConstraint=eastwest;rotatable=0;whiteSpace=wrap;html=1;" vertex="1" parent="1">
          <mxGeometry x="1330" y="1340" width="92" height="30" as="geometry" />
        </mxCell>
        <mxCell id="2DQe4uAKgCYchEltKK3G-226" value="" style="html=1;jettySize=18;whiteSpace=wrap;fontSize=13;strokeOpacity=100;dashed=1;fixDash=1;dashPattern=16 6;strokeWidth=0.8;rounded=1;arcSize=10;edgeStyle=orthogonalEdgeStyle;startArrow=none;endArrow=block;endFill=1;lucidId=0hqTsIfL4JAx;" edge="1" parent="1">
          <mxGeometry width="100" height="100" relative="1" as="geometry">
            <Array as="points" />
            <mxPoint x="1234" y="1396" as="sourcePoint" />
            <mxPoint x="1013" y="1396" as="targetPoint" />
          </mxGeometry>
        </mxCell>
        <mxCell id="2DQe4uAKgCYchEltKK3G-227" value="&lt;span data-lucid-content=&quot;{&amp;quot;t&amp;quot;:&amp;quot;Display Error Msg&amp;quot;,&amp;quot;m&amp;quot;:[{&amp;quot;s&amp;quot;:0,&amp;quot;n&amp;quot;:&amp;quot;a&amp;quot;,&amp;quot;v&amp;quot;:&amp;quot;center&amp;quot;},{&amp;quot;s&amp;quot;:0,&amp;quot;n&amp;quot;:&amp;quot;s&amp;quot;,&amp;quot;v&amp;quot;:18,&amp;quot;e&amp;quot;:17},{&amp;quot;s&amp;quot;:0,&amp;quot;n&amp;quot;:&amp;quot;fsp&amp;quot;,&amp;quot;v&amp;quot;:&amp;quot;ss_presetShapeStyle1_textStyle&amp;quot;,&amp;quot;e&amp;quot;:17},{&amp;quot;s&amp;quot;:0,&amp;quot;n&amp;quot;:&amp;quot;fsp2&amp;quot;,&amp;quot;v&amp;quot;:&amp;quot;ss_presetShapeStyle1_textStyle&amp;quot;,&amp;quot;e&amp;quot;:17}]}&quot; data-lucid-type=&quot;application/vnd.lucid.text&quot;&gt;&lt;span style=&quot;color: rgb(58, 65, 74); font-size: 13.5px;&quot;&gt;Display Expired Notes&lt;/span&gt;&lt;/span&gt;" style="text;strokeColor=none;fillColor=none;align=left;verticalAlign=middle;spacingLeft=4;spacingRight=4;overflow=hidden;points=[[0,0.5],[1,0.5]];portConstraint=eastwest;rotatable=0;whiteSpace=wrap;html=1;" vertex="1" parent="1">
          <mxGeometry x="1061" y="1370" width="149" height="30" as="geometry" />
        </mxCell>
        <mxCell id="2DQe4uAKgCYchEltKK3G-228" value="" style="endArrow=none;dashed=1;html=1;rounded=0;exitX=0.004;exitY=0.493;exitDx=0;exitDy=0;exitPerimeter=0;" edge="1" parent="1">
          <mxGeometry width="50" height="50" relative="1" as="geometry">
            <mxPoint x="916" y="1410" as="sourcePoint" />
            <mxPoint x="1847" y="1410" as="targetPoint" />
          </mxGeometry>
        </mxCell>
        <mxCell id="2DQe4uAKgCYchEltKK3G-229" value="&lt;span style=&quot;color: rgb(0, 0, 0); font-family: Helvetica; font-size: 10px; font-style: normal; font-variant-ligatures: normal; font-variant-caps: normal; font-weight: 400; letter-spacing: normal; orphans: 2; text-align: left; text-indent: 0px; text-transform: none; widows: 2; word-spacing: 0px; -webkit-text-stroke-width: 0px; white-space: normal; background-color: rgb(251, 251, 251); text-decoration-thickness: initial; text-decoration-style: initial; text-decoration-color: initial; float: none; display: inline !important;&quot;&gt;[AVAILABLE]&lt;/span&gt;" style="text;whiteSpace=wrap;html=1;" vertex="1" parent="1">
          <mxGeometry x="915" y="1350" width="90" height="40" as="geometry" />
        </mxCell>
        <mxCell id="2DQe4uAKgCYchEltKK3G-230" value="&lt;span style=&quot;color: rgb(0, 0, 0); font-family: Helvetica; font-size: 10px; font-style: normal; font-variant-ligatures: normal; font-variant-caps: normal; font-weight: 400; letter-spacing: normal; orphans: 2; text-align: left; text-indent: 0px; text-transform: none; widows: 2; word-spacing: 0px; -webkit-text-stroke-width: 0px; white-space: normal; background-color: rgb(251, 251, 251); text-decoration-thickness: initial; text-decoration-style: initial; text-decoration-color: initial; float: none; display: inline !important;&quot;&gt;[NOT AVAILABLE]&lt;/span&gt;" style="text;whiteSpace=wrap;html=1;" vertex="1" parent="1">
          <mxGeometry x="915" y="1415" width="90" height="40" as="geometry" />
        </mxCell>
      </root>
    </mxGraphModel>
  </diagram>
</mxfile>
